<svg viewBox="0 0 61.99426343019121 61.99426343019121" height="61.99426343019121" width="61.99426343019121"><g><path d="M0 30.997c0-17.119 13.878-30.997 30.997-30.997 17.119 0 30.997 13.878 30.997 30.997 0 17.119-13.878 30.997-30.997 30.997-17.119 0-30.997-13.878-30.997-30.997zM30.997 59.437c15.707 0 28.44-12.733 28.44-28.44 0-15.707-12.733-28.44-28.44-28.44-15.707 0-28.44 12.733-28.44 28.44 0 15.707 12.733 28.44 28.44 28.44z" data-fill-palette-color="accent" fill="#ba3b0a" stroke="transparent"></path></g><g transform="matrix(1,0,0,1,19.56558852140592,19.529032143563327)"><svg viewBox="0 0 22.863086387379372 22.936199143064556" height="22.936199143064556" width="22.863086387379372"><g><svg xmlns="http://www.w3.org/2000/svg" xmlns:xlink="http://www.w3.org/1999/xlink" version="1.1" x="0" y="0" viewBox="7.157190322875977 3.9860024452209473 89.67459869384766 89.96136474609375" enable-background="new 0 0 100 100" xml:space="preserve" height="22.936199143064556" width="22.863086387379372" class="icon-s-0" data-fill-palette-color="accent" id="s-0"><g fill="#ba3b0a" data-fill-palette-color="accent"><g fill="#ba3b0a" data-fill-palette-color="accent"><path d="M13.94 7.583c0 0-5.963-3.665-6.233 3.014-0.267 6.679 10.747 20.552 21.625 32.124 11.505 12.243 11.561 12.188 21.943 21.247l5.328 0.141c0 0 19.336 21.263 26.287 28.216 5.077 5.078 12.768-3.027 8.761-7.033L13.94 7.583z" fill="#ba3b0a" data-fill-palette-color="accent"></path><path d="M8.928 83.346c-5.346 5.346 2.518 14.812 8.934 8.399 6.414-6.415 23.93-23.93 23.93-23.93l-8.721-8.613C33.071 59.202 14.272 77.999 8.928 83.346z" fill="#ba3b0a" data-fill-palette-color="accent"></path><path d="M96.476 21.006c-0.773-1.869-2.612-3.122-4.577-3.122-1.284 0-2.491 0.528-3.49 1.528l-15.251 15.25c-2.038 2.039-4.656 2.168-6.37 0.458l-1.045-1.046c-2.396-2.394-0.65-5.404 0.604-6.661l14.919-14.919c1.597-1.594 2.088-3.659 1.317-5.523-0.74-1.785-2.521-2.985-4.434-2.985-0.963 0-2.41 0.299-3.833 1.72L58.315 21.706c-4.348 4.349-6.082 11.852-0.739 17.195 1.054 1.054 1.127 1.133 1.2 1.236 0.162 0.221 0.289 0.394 3.035 3.141 2.266 2.265 4.997 3.463 7.905 3.463 3.281 0 6.628-1.538 9.424-4.334l16.164-16.167C96.782 24.762 97.22 22.806 96.476 21.006z" fill="#ba3b0a" data-fill-palette-color="accent"></path></g></g></svg></g></svg></g></svg>